<?xml version="1.0" standalone="no"?><!DOCTYPE svg PUBLIC "-//W3C//DTD SVG 1.1//EN" "http://www.w3.org/Graphics/SVG/1.1/DTD/svg11.dtd"><svg t="1700991497761" class="icon" viewBox="0 0 1024 1024" version="1.1" xmlns="http://www.w3.org/2000/svg" p-id="4895" xmlns:xlink="http://www.w3.org/1999/xlink" width="200" height="200"><path d="M776.191485 982.272081L296.192421 515.840991c-1.279998-1.279998-1.535997-2.815995-1.535997-3.839993 0-1.023998 0.256-2.559995 1.535997-3.839992L775.935485 41.729915c6.143988-5.887989 6.399988-15.871969 0.511999-22.015957l-14.335972-14.847971c-5.887989-6.399988-15.61597-6.399988-21.759957-0.511999L260.60849 470.785079c-11.263978 11.007979-17.407966 25.59995-17.407966 41.215919 0 15.61597 6.143988 30.463941 17.407966 41.21592l479.999064 466.43109c6.143988 5.887989 15.871969 5.631989 21.759958-0.511999l14.335972-14.847971c5.887989-6.143988 5.631989-16.127969-0.511999-22.015957z" p-id="4896"></path></svg>