<?xml version="1.0" standalone="no"?><!DOCTYPE svg PUBLIC "-//W3C//DTD SVG 1.1//EN" "http://www.w3.org/Graphics/SVG/1.1/DTD/svg11.dtd"><svg t="1701765264249" class="icon" viewBox="0 0 1024 1024" version="1.1" xmlns="http://www.w3.org/2000/svg" p-id="9095" xmlns:xlink="http://www.w3.org/1999/xlink" width="200" height="200"><path d="M513.1 187c-324 0-448.7 320-448.7 320s127 327.3 448.7 327.3S961.8 507 961.8 507 837.1 187 513.1 187z m0 522.5c-110.5 0-200.1-89.6-200.1-200.1s89.6-200.1 200.1-200.1 200.1 89.6 200.1 200.1-89.6 200.1-200.1 200.1z" fill="#999999" p-id="9096"></path><path d="M400.7 508.4c0 40.4 21.5 77.6 56.5 97.8 34.9 20.2 78 20.2 113 0 34.9-20.2 56.5-57.5 56.5-97.8 0-62.4-50.6-113-113-113s-113 50.6-113 113z" fill="#999999" p-id="9097"></path></svg>